<?xml version="1.0" standalone="no"?>
<!DOCTYPE svg PUBLIC "-//W3C//DTD SVG 20010904//EN"
 "http://www.w3.org/TR/2001/REC-SVG-20010904/DTD/svg10.dtd">
<svg version="1.0" xmlns="http://www.w3.org/2000/svg"
 width="320.000000pt" height="320.000000pt" viewBox="0 0 320.000000 320.000000"
 preserveAspectRatio="xMidYMid meet">
<metadata>
Created by potrace 1.14, written by Peter Selinger 2001-2017
</metadata>
<g transform="translate(0.000000,320.000000) scale(0.100000,-0.100000)"
fill="#000000" stroke="none">
<path d="M1435 3193 c-27 -3 -224 -41 -250 -47 -244 -63 -507 -213 -696 -397
-231 -225 -373 -478 -448 -799 -30 -125 -36 -180 -36 -340 0 -175 5 -226 39
-389 11 -50 70 -218 103 -290 94 -205 252 -412 433 -564 178 -150 479 -296
685 -332 17 -2 41 -7 55 -10 89 -20 373 -27 475 -13 135 19 183 30 290 64 80
26 104 35 205 82 311 143 591 419 745 737 119 246 165 455 160 735 -2 91 -6
179 -10 195 -3 17 -12 65 -21 107 -83 417 -360 807 -734 1035 -162 99 -379
181 -550 208 -25 4 -54 9 -65 12 -26 6 -340 11 -380 6z"/>
</g>
</svg>
